<svg width="24" height="24" viewBox="0 0 24 24" fill="none" xmlns="http://www.w3.org/2000/svg">
<path fill-rule="evenodd" clip-rule="evenodd" d="M10.9886 2.90399C11.265 2.65164 11.6257 2.51172 12 2.51172C12.3743 2.51172 12.735 2.65164 13.0114 2.90398C13.0118 2.90432 13.0121 2.90466 13.0125 2.90499L20.5107 9.71893L20.5212 9.72871C20.6694 9.86869 20.7881 10.0369 20.8703 10.2235C20.9526 10.41 20.9966 10.6111 20.9999 10.815L21 10.8271V19.499C21 19.8968 20.842 20.2783 20.5607 20.5596C20.2794 20.8409 19.8978 20.999 19.5 20.999H15C14.6022 20.999 14.2206 20.8409 13.9393 20.5596C13.658 20.2783 13.5 19.8968 13.5 19.499V14.999H10.5V19.499C10.5 19.8968 10.342 20.2783 10.0607 20.5596C9.77935 20.8409 9.39782 20.999 9 20.999H4.5C4.10218 20.999 3.72065 20.8409 3.43934 20.5596C3.15804 20.2783 3 19.8968 3 19.499V10.8271L3.0001 10.815C3.0034 10.6111 3.04745 10.41 3.12966 10.2235C3.21187 10.0369 3.33057 9.86869 3.47879 9.72871L3.48935 9.71893L10.9875 2.90499C10.9879 2.90466 10.9882 2.90432 10.9886 2.90399ZM4.50711 10.8209L11.9982 4.0134L12 4.01172L12.0018 4.0134L19.4929 10.8209C19.4949 10.8231 19.4965 10.8256 19.4977 10.8284C19.499 10.8312 19.4997 10.8342 19.5 10.8373V19.499H15V14.999C15 14.6012 14.842 14.2196 14.5607 13.9383C14.2794 13.657 13.8978 13.499 13.5 13.499H10.5C10.1022 13.499 9.72065 13.657 9.43934 13.9383C9.15804 14.2196 9 14.6012 9 14.999V19.499H4.5V10.8373C4.50026 10.8342 4.50103 10.8312 4.50229 10.8284C4.50349 10.8256 4.50512 10.8231 4.50711 10.8209Z" fill="black"/>
</svg>
